<svg xmlns="http://www.w3.org/2000/svg" xml:space="preserve" id="Layer_1" x="0" y="0" style="enable-background:new 0 0 539.9 152" version="1.1" viewBox="0 0 539.9 152"><style>.st0{fill:#FD5826}.st1{fill:#FD5826}</style><path d="M115.1 17.6c4.4 0 8.7.1 13 .1 4.7 0 9.4-.1 14.1-.1l-.8 2.7-6.5 3.4V48c0 16.1.3 25.9.5 26.9l8.4 3.5-.8 2.7c-5 0-10.1-.2-15.2-.2s-10 .2-15 .2l.8-2.7 7.1-3.6c.4-1.1.6-10.9.6-26.9V23.7l-7-3.4zM152.1 45.9l-4.8-2.4.9-2.2c1.5-1.3 14.8-4.4 17.2-4.2l-.8 7 .2.2c5.1-3.9 10.2-7.2 14.3-7.2 10.6 0 13.8 8.3 13.8 15.2v21.5c0 1.1.7 1.7 1.9 2.3l4.9 2.4-.7 2.7c-4.4 0-8.7-.1-13-.1-3.7 0-7.4.1-11.2.1l.5-2.7 3.9-3.1c.2-2.9.5-9.4.5-21.5 0-5.8-2.6-8.8-7.1-8.8-2.7.1-5.2 1.2-7.2 3 0 7.6 0 25.6.2 27.3l4.7 3.1-.6 2.7c-3.7-.2-7.5-.2-11.1-.2-4.2 0-8.4.1-12.6.1l.7-2.7 5.2-3.1c.2-1.2.3-10.6.3-21.5zM218.9 37c2.6 0 5.2.8 7.4 2.3 1.8-1.2 3.7-2.2 5.8-2.9l1.1.5c-.4 4.6-1.5 11.2-2.4 13.4l-1.7.6c-1.5-2.3-2.8-4.9-3.7-7.5-1.6-1.3-3.6-1.9-5.7-1.8-4.2 0-6 2.9-6 4.9 0 1.7 1.1 3.4 3.7 4.6 4.9 2.3 7.9 3.8 11.5 5.9 5.5 3 6.9 6.5 6.9 10.6 0 12.1-12.3 14.7-19.3 14.7-5.1-.1-10-1.4-14.4-3.9.4-4.2 1.2-8.3 2.4-12.3l1.5-.7c1.7 2.9 4.3 8.7 6.1 12.1 1.6.7 3.3 1 5.1 1 4.2 0 7.2-2.8 7.2-5.9 0-1.9-.8-3.3-3.4-4.6-2.4-1.3-5.2-2.8-8.4-4.3-6-2.9-9.6-6.5-9.6-12.8 0-6.9 5.2-13.8 15.9-13.9M255.6 42.6h.3c6.5-4.1 9.9-5.6 11.9-5.6 7.9 0 18.9 7.1 18.9 20.5 0 17.8-14 24.7-23.2 24.7-1.2 0-3.8-.9-7.5-2.7l-.2.1c0 5.2.2 11.9.4 15.6l8.9 3.4-.7 2.8c-4.8 0-9.8-.1-14.6-.1-4.3 0-8.7.1-13.1.1l1-3 4.7-2.9c.1-2.1.4-11.3.4-25.2V45.1l-5.3-3.4.7-2.3c5.9-1.2 11.8-2 17.8-2.4zm.4 33c1.4.6 2.8.9 4.3.9 6.5 0 12.8-5.8 12.8-16.4 0-10.3-6.6-15.3-12.6-15.3-1.6 0-3.2.4-4.6 1.1zM304.9 59.6c-.1.4-.1.8-.1 1.2-.1 9 5.6 15.3 13.4 15.3.8 0 1.6-.1 2.4-.3 3-2.4 6.2-4.6 9.6-6.5l.6 1.6c-.7 3.5-5.6 8.4-7.4 9.4-3.2 1.2-6.6 1.8-10 1.9-13.5 0-22.3-8.4-22.3-22.1 0-13.3 10.3-23.1 22.2-23.1 10.4 0 18.4 6.4 18.4 17.6 0 1.5-.4 2.7-1 3.1s-4.4 1.8-10.2 1.8h-15.6zm13.3-4.4c.4-1 .6-2 .6-3.1 0-6.6-2.1-11.1-6.1-11.1-5 0-7.8 8.6-7.9 14.1h13.4zM336.2 40.9c1.5-.8 12.2-3.7 16.5-3.9.6 2.7.9 5.4 1 8.1h.3c3.1-4.6 7.6-8.1 12.3-8.1 2.6 0 4.4.8 5.5 2-.2 2.8-2.9 10.1-4.8 13.4l-1.6.5c-1.5-2.2-2.9-4.6-4.1-7-.4-.3-.9-.4-1.5-.4-2 0-4.6 2.1-5.8 4.6v25.1l9.6 3.1-.7 2.7c-5.3 0-10.6-.1-15.9-.1-4.1 0-8.2.1-12.3.1l.3-2.7 5.3-3.1c.4-9.8.5-25.5.5-29.4l-5.2-2.6zM375.4 40.1c5.8-1.5 11.8-2.6 17.8-3.1v20c0 10.8.1 16.2.2 18.3l6.4 3-.6 2.8c-4.5 0-8.3-.1-12.8-.1-4.1 0-8.4.1-12.2.1l.5-2.8 5.1-3c.1-3.4.2-10.9.2-18.5V45.1l-5.4-2.7zM470 38.3c-2.1 0-4.3-.1-6.5-.1l-1 2.6 3.8 3.3c-1 3.9-4.1 13.2-6.2 19.5-3.4-8.3-7.6-14.9-9.5-20l2.5-2.7.5-2.7c-3.5 0-6.9.1-10.4.1-4.2 0-23.5-.1-23.5-.1l.5-14c-1.2 0-6.3 1.1-8.4 2.3-1.6 1.8-4.4 9.2-5.1 11.7h-4.8l-1.4 3.8 6 1.6v24.2c0 5.8.6 8 2.1 10 2.3 2.9 6.1 4.4 11.3 4.4 6 0 11.2-2.8 13.4-6.5v-3.4l-.4-.2c-2.2 1.7-5 2.6-7.8 2.5-1.6 0-3.2-.5-4.5-1.5-.5-.6-1-1.5-1-3.9 0-10.8.1-19.4.1-25.7l10.8-1.9c2.4 0 4.7 1.2 5.9 3.3 4 8.6 14.5 34.4 15.7 36.7-.9 2.3-1.9 4.5-3.1 6.7-4.5 3.8-9.2 8.4-9.9 9.9.8 1.7 4.9 4.9 9 4.9.8 0 1.5-.1 2.2-.4.7-2.8 1.2-5.4 2.7-11.7 6.2-14.8 16.4-40.8 19.6-46.9 2-1.1 4-2.4 5.9-3.5l.8-2.7c-2.8.4-5.9.5-9.3.4M392.9 23.5c-.3 3.9-3.6 6.8-7.5 6.5s-6.8-3.6-6.5-7.5c.3-3.7 3.3-6.5 7-6.5 3.9.2 7.1 3.5 7 7.5M467 78.4c-.1-3.1 2.3-5.8 5.4-5.9s5.8 2.3 5.9 5.4v.5c0 4-2.8 5.9-5.6 5.9s-5.7-1.9-5.7-5.9m10.2 0c0-3-1.9-4.9-4.6-4.9s-4.6 1.9-4.6 4.9 1.9 5 4.6 5 4.6-1.9 4.6-5m-6.5-3h1.9c1-.1 1.9.6 2 1.6v.2c0 .7-.4 1.4-1.1 1.6.1.1.2.2.3.4l1.1 2.2h-1.2l-.9-2c-.1-.3-.3-.4-.5-.4h-.5v2.4h-1.1zm1.9 2.7c.5 0 .8-.3.8-.9s-.2-.9-.8-.9h-.8V78h.8z" class="st0"/><path d="M149.6 118.8h3.1l-1.8 9.7h10l1.8-9.7h3.1l-4.2 22.6h-3.1l1.9-10.1h-10l-1.9 10.1h-3.2z" class="st1"/><path d="M149.6 118.8h3.1l-1.8 9.7h10l1.8-9.7h3.1l-4.2 22.6h-3.1l1.9-10.1h-10l-1.9 10.1h-3.2zM171.2 118.8h6.9c4.2 0 6.1 2.2 6.1 5.3 0 3.5-2.4 6.6-5.9 7.4.5.5.9 1.2 1.1 1.9l2.8 8h-3.3l-2.4-7.3c-.5-1.5-.9-2.2-2.4-2.2h-2.2l-1.8 9.5H167zm4.8 10.5c2.5.1 4.7-1.8 4.9-4.3v-.5c0-1.8-1-2.9-3.4-2.9h-3.7l-1.4 7.7z" class="st1"/><path d="M171.2 118.8h6.9c4.2 0 6.1 2.2 6.1 5.3 0 3.5-2.4 6.6-5.9 7.4.5.5.9 1.2 1.1 1.9l2.8 8h-3.3l-2.4-7.3c-.5-1.5-.9-2.2-2.4-2.2h-2.2l-1.8 9.5H167zm4.8 10.5c2.5.1 4.7-1.8 4.9-4.3v-.5c0-1.8-1-2.9-3.4-2.9h-3.7l-1.4 7.7zM195.7 127.3h-2.5l.4-2.4h2.5l1.4-5.2 2.6-.4-1 5.6h4.5l-.8 2.4h-4.2l-1.7 9c-.4 2 .3 2.8 1.8 2.8.7 0 1.4-.2 2.1-.4l.2 2.5c-1 .4-2.1.6-3.1.6-2.9 0-4.7-1.7-4-5.2z" class="st1"/><path d="M195.7 127.3h-2.5l.4-2.4h2.5l1.4-5.2 2.6-.4-1 5.6h4.5l-.8 2.4h-4.2l-1.7 9c-.4 2 .3 2.8 1.8 2.8.7 0 1.4-.2 2.1-.4l.2 2.5c-1 .4-2.1.6-3.1.6-2.9 0-4.7-1.7-4-5.2zM208.4 117.2h3l-1.9 10c1.4-1.5 3.3-2.4 5.4-2.6 3 0 4.9 2 4 6.5l-2 10.3h-3l1.9-9.9c.5-3-.2-4.3-2.2-4.3-1.6 0-3.5 1.5-4.8 2.8l-2.2 11.5h-3z" class="st1"/><path d="M208.4 117.2h3l-1.9 10c1.4-1.5 3.3-2.4 5.4-2.6 3 0 4.9 2 4 6.5l-2 10.3h-3l1.9-9.9c.5-3-.2-4.3-2.2-4.3-1.6 0-3.5 1.5-4.8 2.8l-2.2 11.5h-3zM231 124.6c2.1 0 4.2.7 6 1.9l-2.8 15h-2.3l.1-2.1h-.1c-1.1 1.5-2.9 2.5-4.9 2.5-3.4 0-5.2-2.7-5.2-6.6 0-6.3 3.7-10.8 9.2-10.7m-3.2 14.5c1.7 0 3.2-1.3 4.4-3.1l1.5-8.1c-1-.5-2-.8-3.1-.7-3.6 0-5.7 3.4-5.7 7.8 0 2.7 1.1 4.1 2.9 4.1" class="st1"/><path d="M231 124.6c2.1 0 4.2.7 6 1.9l-2.8 15h-2.3l.1-2.1h-.1c-1.1 1.5-2.9 2.5-4.9 2.5-3.4 0-5.2-2.7-5.2-6.6 0-6.3 3.7-10.7 9.2-10.7m-3.2 14.5c1.7 0 3.2-1.3 4.4-3.1l1.5-8.1c-1-.5-2-.8-3.1-.7-3.6 0-5.7 3.4-5.7 7.8 0 2.7 1.1 4.1 2.9 4.1M242 127.3h-2.5l.4-2.4h2.5l1.4-5.2 2.6-.4-1 5.6h4.5l-.8 2.4h-4.2l-1.7 9c-.4 2 .3 2.8 1.8 2.8.7 0 1.4-.2 2.1-.4l.2 2.5c-1 .4-2.1.6-3.1.6-2.9 0-4.7-1.7-4-5.2z" class="st1"/><path d="M242 127.3h-2.5l.4-2.4h2.5l1.4-5.2 2.6-.4-1 5.6h4.5l-.8 2.4h-4.2l-1.7 9c-.4 2 .3 2.8 1.8 2.8.7 0 1.4-.2 2.1-.4l.2 2.5c-1 .4-2.1.6-3.1.6-2.9 0-4.7-1.7-4-5.2zM263.2 118.8h3.7l3 16.2 9.1-16.2h3.7l-2.1 22.6h-3.1l1.8-17.7-8.3 14.5h-3.3l-2.8-14.7-5 17.9h-3.1z" class="st1"/><path d="M263.2 118.8h3.7l3 16.2 9.1-16.2h3.7l-2.1 22.6h-3.1l1.8-17.7-8.3 14.5h-3.3l-2.8-14.7-5 17.9h-3.1zM294.5 124.6c2.2 0 4.3.7 6 1.9l-2.8 15h-2.3l.1-2.1h-.1c-1.1 1.5-2.9 2.5-4.9 2.5-3.4 0-5.2-2.7-5.2-6.6 0-6.3 3.8-10.8 9.2-10.7m-3.2 14.5c1.7 0 3.2-1.3 4.4-3.1l1.5-8.1c-1-.5-2-.8-3.1-.7-3.6 0-5.7 3.4-5.7 7.8 0 2.7 1.1 4.1 2.9 4.1" class="st1"/><path d="M294.5 124.6c2.2 0 4.3.7 6 1.9l-2.8 15h-2.3l.1-2.1h-.1c-1.1 1.5-2.9 2.5-4.9 2.5-3.4 0-5.2-2.7-5.2-6.6 0-6.3 3.8-10.7 9.2-10.7m-3.2 14.5c1.7 0 3.2-1.3 4.4-3.1l1.5-8.1c-1-.5-2-.8-3.1-.7-3.6 0-5.7 3.4-5.7 7.8.1 2.7 1.1 4.1 2.9 4.1M306.8 117.2h2.9l-2.6 14 6.9-6.3h3.8l-6.6 5.9 4.5 10.6h-3.3l-3.4-8.6-2.7 2.4-1.2 6.2h-2.9z" class="st1"/><path d="M306.8 117.2h2.9l-2.6 14 6.9-6.3h3.8l-6.6 5.9 4.5 10.6h-3.3l-3.4-8.6-2.7 2.4-1.2 6.2h-2.9zM327 124.6c3.5 0 5.2 2 5.2 4.5 0 2.8-2.9 5.2-11 5.4v.4c0 3.1 1.4 4.3 3.5 4.3 1.8-.1 3.6-.6 5.1-1.6l.8 2.4c-1.9 1.2-4.2 1.9-6.5 1.9-4.1 0-6-2.8-6-6.6-.1-5.9 3.4-10.7 8.9-10.7m2.1 4.6c0-1.1-1-2-2.1-2h-.2c-2.6 0-4.7 1.9-5.4 5 5-.2 7.7-1 7.7-3" class="st1"/><path d="M327 124.6c3.5 0 5.2 2 5.2 4.5 0 2.8-2.9 5.2-11 5.4v.4c0 3.1 1.4 4.3 3.5 4.3 1.8-.1 3.6-.6 5.1-1.6l.8 2.4c-1.9 1.2-4.2 1.9-6.5 1.9-4.1 0-6-2.8-6-6.6-.1-5.9 3.4-10.7 8.9-10.7m2.1 4.6c0-1.1-1-2-2.1-2h-.2c-2.6 0-4.7 1.9-5.4 5 5-.2 7.7-1 7.7-3M334.4 137.7c1.1.9 2.5 1.4 4 1.5 1.8 0 2.9-1 2.9-2.4 0-2.5-5.9-2.3-5.9-6.6 0-3.5 2.9-5.5 6.1-5.5 1.6 0 3.1.5 4.4 1.4l-1.3 2.3c-1-.6-2.2-1-3.3-1-1.8 0-2.7.9-2.7 2.3 0 2.7 5.8 2.3 5.8 6.6 0 3.4-2.9 5.7-6.4 5.7-1.8 0-3.6-.6-5-1.7z" class="st1"/><path d="M334.4 137.7c1.1.9 2.5 1.4 4 1.5 1.8 0 2.9-1 2.9-2.4 0-2.5-5.9-2.3-5.9-6.6 0-3.5 2.9-5.5 6.1-5.5 1.6 0 3.1.5 4.4 1.4l-1.3 2.3c-1-.6-2.2-1-3.3-1-1.8 0-2.7.9-2.7 2.3 0 2.7 5.8 2.3 5.8 6.6 0 3.4-2.9 5.7-6.4 5.7-1.8 0-3.6-.6-5-1.7zM363.4 124.6c2.2 0 4.3.7 6 1.9l-2.8 15h-2.3l.1-2.1h-.1c-1.1 1.5-2.9 2.5-4.9 2.5-3.4 0-5.2-2.7-5.2-6.6.1-6.3 3.8-10.8 9.2-10.7m-3.2 14.5c1.7 0 3.2-1.3 4.4-3.1l1.5-8.1c-1-.5-2-.8-3.1-.7-3.6 0-5.7 3.4-5.7 7.8 0 2.7 1 4.1 2.9 4.1" class="st1"/><path d="M363.4 124.6c2.2 0 4.3.7 6 1.9l-2.8 15h-2.3l.1-2.1h-.1c-1.1 1.5-2.9 2.5-4.9 2.5-3.4 0-5.2-2.7-5.2-6.6 0-6.3 3.8-10.7 9.2-10.7m-3.2 14.5c1.7 0 3.2-1.3 4.4-3.1l1.5-8.1c-1-.5-2-.8-3.1-.7-3.6 0-5.7 3.4-5.7 7.8 0 2.7 1 4.1 2.9 4.1M381.8 118.8h8.2c5.2 0 7.5 3.4 7.5 8.4 0 7.5-3.8 14.2-11.8 14.2h-8.2zm4.5 19.9c5.3 0 8-5.3 8-11.1 0-3.6-1.5-5.9-4.7-5.9h-5.1l-3.2 17z" class="st1"/><path d="M381.8 118.8h8.2c5.2 0 7.5 3.4 7.5 8.4 0 7.5-3.8 14.2-11.8 14.2h-8.2zm4.5 19.9c5.3 0 8-5.3 8-11.1 0-3.6-1.5-5.9-4.7-5.9h-5.1l-3.2 17zM402.4 124.9h3l-3.1 16.5h-3zm.5-4.8c.1-1.2 1.1-2.2 2.3-2.2.8 0 1.5.7 1.5 1.5v.1c0 1.2-1 2.2-2.2 2.2-.8 0-1.6-.6-1.6-1.6 0 .1 0 .1 0 0" class="st1"/><path d="M402.4 124.9h3l-3.1 16.5h-3zm.5-4.8c.1-1.2 1.1-2.2 2.3-2.2.8 0 1.5.7 1.5 1.5v.1c0 1.2-1 2.2-2.2 2.2-.8 0-1.6-.6-1.6-1.6 0 .1 0 .1 0 0M410.6 127.3h-2.9l.4-2.4h3l.5-2.9c.4-3 3-5.2 6-5.2 1.1 0 2.2.2 3.2.6l-.9 2.5c-.7-.3-1.4-.4-2.2-.4-1.6-.1-3 1.2-3.1 2.8l-.5 2.6h8.2l.6-2.9c.4-3 3-5.2 6-5.2 1.1 0 2.2.2 3.2.6l-.9 2.5c-.7-.3-1.4-.4-2.2-.4-1.6-.1-3.1 1.1-3.2 2.8l-.5 2.6h3.9l-.6 2.4h-3.7l-2.8 14.9c-.8 4.4-2.7 6-7.2 6l.1-2.7c2.8 0 3.7-.8 4.2-3.5l2.8-14.7h-8.2l-2.8 14.9c-.8 4.4-2.7 6-7.2 6l.1-2.7c2.8 0 3.6-.8 4.2-3.5z" class="st1"/><path d="M410.6 127.3h-2.9l.4-2.4h3l.5-2.9c.4-3 3-5.2 6-5.2 1.1 0 2.2.2 3.2.6l-.9 2.5c-.7-.3-1.4-.4-2.2-.4-1.6-.1-3 1.2-3.1 2.8l-.5 2.6h8.2l.6-2.9c.4-3 3-5.2 6-5.2 1.1 0 2.2.2 3.2.6l-.9 2.5c-.7-.3-1.4-.4-2.2-.4-1.6-.1-3.1 1.1-3.2 2.8l-.5 2.6h3.9l-.6 2.4h-3.7l-2.8 14.9c-.8 4.4-2.7 6-7.2 6l.1-2.7c2.8 0 3.7-.8 4.2-3.5l2.8-14.7h-8.2l-2.8 14.9c-.8 4.4-2.7 6-7.2 6l.1-2.7c2.8 0 3.6-.8 4.2-3.5zM438.2 124.6c3.5 0 5.2 2 5.2 4.5 0 2.8-2.9 5.2-11 5.4v.4c0 3.1 1.4 4.3 3.4 4.3 1.8-.1 3.6-.6 5.1-1.6l.8 2.4c-1.9 1.2-4.2 1.9-6.5 1.9-4.2 0-6-2.8-6-6.6 0-5.9 3.5-10.7 9-10.7m2.1 4.6c0-1.1-1-2-2.1-2h-.2c-2.6 0-4.7 1.9-5.4 5 5-.2 7.7-1 7.7-3" class="st1"/><path d="M438.2 124.6c3.5 0 5.2 2 5.2 4.5 0 2.8-2.9 5.2-11 5.4v.4c0 3.1 1.4 4.3 3.4 4.3 1.8-.1 3.6-.6 5.1-1.6l.8 2.4c-1.9 1.2-4.2 1.9-6.5 1.9-4.2 0-6-2.8-6-6.6 0-5.9 3.5-10.7 9-10.7m2.2 4.6c0-1.1-1-2-2.1-2h-.2c-2.6 0-4.7 1.9-5.4 5 5-.2 7.6-1 7.7-3M448.1 124.9h2.4l-.2 2.7h.1c1-1.6 2.7-3.1 4.7-3.1.6 0 1.2.1 1.8.3l-1 2.6c-.4-.1-.8-.2-1.2-.2-2 0-4.3 2.3-5 5.1l-1.7 9.1h-3z" class="st1"/><path d="M448.1 124.9h2.4l-.2 2.7h.1c1-1.6 2.7-3.1 4.7-3.1.6 0 1.2.1 1.8.3l-1 2.6c-.4-.1-.8-.2-1.2-.2-2 0-4.3 2.3-5 5.1l-1.7 9.1h-3zM465.7 124.6c3.5 0 5.2 2 5.2 4.5 0 2.8-2.9 5.2-11 5.4v.4c0 3.1 1.4 4.3 3.5 4.3 1.8-.1 3.6-.6 5.1-1.6l.8 2.4c-1.9 1.2-4.2 1.9-6.5 1.9-4.2 0-6-2.8-6-6.6-.1-5.9 3.4-10.7 8.9-10.7m2.1 4.6c0-1.1-1-2-2.1-2h-.2c-2.6 0-4.7 1.9-5.4 5 4.9-.2 7.7-1 7.7-3" class="st1"/><path d="M465.7 124.6c3.5 0 5.2 2 5.2 4.5 0 2.8-2.9 5.2-11 5.4v.4c0 3.1 1.4 4.3 3.5 4.3 1.8-.1 3.6-.6 5.1-1.6l.8 2.4c-1.9 1.2-4.2 1.9-6.5 1.9-4.2 0-6-2.8-6-6.6-.2-5.9 3.3-10.7 8.9-10.7m2.1 4.6c0-1.1-1-2-2.1-2h-.2c-2.6 0-4.7 1.9-5.4 5 5-.2 7.7-1 7.7-3M475.6 124.9h2.4l-.2 2.3h.1c1.4-1.6 3.3-2.5 5.4-2.6 3.1 0 5 2.2 4.2 6.7l-1.9 10.2h-3l1.8-9.9c.5-2.9-.1-4.3-2.2-4.3-1.6 0-3.3 1.4-4.7 2.8l-2.2 11.4h-3z" class="st1"/><path d="M475.6 124.9h2.4l-.2 2.3h.1c1.4-1.6 3.3-2.5 5.4-2.6 3.1 0 5 2.2 4.2 6.7l-1.9 10.2h-3l1.8-9.9c.5-2.9-.1-4.3-2.2-4.3-1.6 0-3.3 1.4-4.7 2.8l-2.2 11.4h-3zM499.6 124.6c1.7 0 3.3.5 4.7 1.5l-1.2 2.3c-1.1-.8-2.4-1.1-3.7-1.1-4 0-5.8 3.3-5.8 7.6 0 2.7 1.2 4.3 3.7 4.3 1.5 0 3.1-.5 4.3-1.4l.8 2.3c-1.7 1.2-3.7 1.8-5.8 1.8-4.1 0-6.1-2.5-6.1-6.6-.1-6.1 3.5-10.7 9.1-10.7" class="st1"/><path d="M499.6 124.6c1.7 0 3.3.5 4.7 1.5l-1.2 2.3c-1.1-.8-2.4-1.1-3.7-1.1-4 0-5.8 3.3-5.8 7.6 0 2.7 1.2 4.3 3.7 4.3 1.5 0 3.1-.5 4.3-1.4l.8 2.3c-1.7 1.2-3.7 1.8-5.8 1.8-4.1 0-6.1-2.5-6.1-6.6-.1-6.2 3.5-10.7 9.1-10.7M514.2 124.6c3.5 0 5.2 2 5.2 4.5 0 2.8-2.9 5.2-11 5.4v.4c0 3.1 1.4 4.3 3.4 4.3 1.8-.1 3.6-.6 5.1-1.6l.8 2.4c-1.9 1.2-4.2 1.9-6.5 1.9-4.2 0-6-2.8-6-6.6 0-5.9 3.5-10.7 9-10.7m2.1 4.6c0-1.1-1-2-2.1-2h-.2c-2.6 0-4.7 1.9-5.4 5 5-.2 7.7-1 7.7-3" class="st1"/><path d="M514.2 124.6c3.5 0 5.2 2 5.2 4.5 0 2.8-2.9 5.2-11 5.4v.4c0 3.1 1.4 4.3 3.4 4.3 1.8-.1 3.6-.6 5.1-1.6l.8 2.4c-1.9 1.2-4.2 1.9-6.5 1.9-4.2 0-6-2.8-6-6.6 0-5.9 3.5-10.7 9-10.7m2.1 4.6c0-1.1-1-2-2.1-2h-.2c-2.6 0-4.7 1.9-5.4 5 5-.2 7.7-1 7.7-3M16.8 14.8c-.5.5-.7 1.2-.6 1.9.2 19.8-11.7 28.8-10.3 28.7 6.8-.8 6.4-.8 6.4-.8 5.1-7.2 8-15.7 8.5-24.4.1-.7.6-1.2 1.3-1.3 8.8-.5 17.2-3.4 24.4-8.5.1 0 0 .4.8-6.4.2-1.5-8.7 10.5-28.7 10.3-.5-.2-1.3 0-1.8.5" class="st1"/><path d="M29.7 28.4c-.7 5.1-2.1 10-4.4 14.5 0 .1.3 0-5.5.7-.1 0-.1 0-.1-.1v-.1C23 37.5 25 31 25.3 24.2c0-.5.5-1 1-1 6.7-.4 13.3-2.3 19.2-5.6h.2v.1c-.7 5.9-.7 5.6-.7 5.6-4.6 2.2-9.5 3.7-14.6 4.3-.4.1-.7.4-.7.8" class="st1"/><path d="M34.7 31.9c8.1-1.2 9.7-2.7 9.6-2.1-.6 4.2-.4 4-.5 4.1-1.9.9-3.9 1.3-5.9 1.3-.4 0-.5.1-.6.5 0 2.1-.5 4.1-1.3 6-.1.1.1 0-4.1.6-.6.1.9-1.6 2.1-9.7 0-.4.3-.7.7-.7M85.9 14.8c-.5-.5-1.2-.7-1.9-.6-19.8.1-28.8-11.7-28.6-10.3.8 6.8.8 6.4.8 6.4 7.2 5.1 15.7 8 24.4 8.5.7.1 1.2.6 1.3 1.3.5 8.8 3.4 17.3 8.5 24.4 0 .1-.4 0 6.4.8 1.5.2-10.5-8.7-10.3-28.7.2-.6-.1-1.3-.6-1.8" class="st1"/><path d="M72.3 27.6c-5-.7-10-2.1-14.5-4.3-.1 0 0 .3-.7-5.5 0-.1 0-.1.1-.1h.1c5.9 3.3 12.4 5.2 19.2 5.6.5 0 1 .5 1 1 .4 6.7 2.3 13.3 5.6 19.2v.2H83c-5.8-.7-5.5-.6-5.5-.7-2.2-4.6-3.7-9.5-4.3-14.6-.2-.4-.5-.7-.9-.8" class="st1"/><path d="M68.9 32.6c1.2 8.1 2.7 9.7 2.1 9.6-4.2-.5-4-.4-4-.5-.9-1.9-1.3-3.9-1.3-6 0-.5-.1-.5-.6-.5-2.1 0-4.1-.5-5.9-1.3-.1 0-.1.1-.6-4.1-.1-.6 1.6.9 9.7 2.1.3.1.5.4.6.7M85.9 83.9c.5-.5.7-1.2.6-1.9-.2-19.8 11.7-28.8 10.3-28.7-6.8.8-6.4.8-6.4.8-5.1 7.2-8 15.7-8.5 24.4-.1.7-.6 1.2-1.3 1.3-8.8.5-17.3 3.4-24.4 8.5-.1 0 0-.4-.8 6.5-.2 1.5 8.7-10.5 28.7-10.3.6.1 1.3-.1 1.8-.6" class="st1"/><path d="M73.1 70.3c.7-5 2.1-10 4.3-14.5 0-.1-.3 0 5.5-.7.1 0 .1 0 .1.1v.1c-3.3 5.9-5.2 12.4-5.6 19.2 0 .5-.5 1-1 1-6.7.4-13.3 2.3-19.2 5.6H57V81c.7-5.8.6-5.5.7-5.5 4.6-2.2 9.5-3.6 14.5-4.3.5-.2.9-.5.9-.9" class="st1"/><path d="M68.1 66.8c-8.1 1.2-9.7 2.7-9.6 2.1.6-4.2.4-4 .5-4 1.9-.9 3.9-1.3 5.9-1.3.4 0 .5-.1.6-.5 0-2.1.5-4.1 1.3-6 0-.1-.1 0 4.1-.6.6-.1-.9 1.6-2.1 9.7 0 .3-.3.6-.7.6M16.9 83.9c.5.5 1.2.7 1.9.6 19.8-.2 28.8 11.7 28.7 10.3-.8-6.8-.8-6.4-.8-6.5-7.2-5.1-15.7-8-24.4-8.5-.7-.1-1.2-.6-1.3-1.3-.5-8.8-3.4-17.3-8.5-24.5-.1-.1.4 0-6.4-.8C4.4 53.1 16.4 62 16.2 82c-.1.7.1 1.4.7 1.9" class="st1"/><path d="M30.4 71.1c5.1.7 10 2.1 14.6 4.3.1 0 0-.3.7 5.5 0 .1 0 .1-.1.1h-.1c-5.9-3.3-12.4-5.2-19.2-5.6-.5 0-1-.5-1-1-.4-6.7-2.3-13.3-5.6-19.2V55h.1c5.8.7 5.5.6 5.5.7 2.2 4.6 3.7 9.5 4.3 14.6.2.4.5.7.8.8" class="st1"/><path d="M33.9 66.1c-1.2-8.1-2.7-9.7-2.1-9.6 4.2.5 4 .4 4.1.5.9 1.9 1.3 3.9 1.3 6 0 .5.1.5.6.5 2.1 0 4.1.5 5.9 1.3.1 0 .1-.1.6 4.1.1.6-1.6-.9-9.7-2.1-.4-.1-.6-.3-.7-.7M521.6 120.5c-.1-2.4 1.8-4.4 4.1-4.5 2.4-.1 4.4 1.8 4.5 4.1v.4c0 3.1-2.1 4.5-4.3 4.5-2 0-4.3-1.5-4.3-4.5m7.8 0c0-2.3-1.4-3.7-3.5-3.7s-3.5 1.4-3.5 3.7 1.4 3.8 3.5 3.8 3.5-1.4 3.5-3.8m-4.9-2.3h1.4c.8-.1 1.4.5 1.5 1.2v.2c0 .5-.3 1.1-.8 1.2.1.1.2.2.2.3l.8 1.7h-.9l-.7-1.5c-.1-.2-.2-.3-.4-.3h-.4v1.8h-.8v-4.6zm1.4 2.1c.4 0 .6-.2.6-.7s-.2-.7-.6-.7h-.6v1.3z" class="st1"/></svg>